<?xml version="1.0" encoding="UTF-8"?>
<svg id="Layer_2" data-name="Layer 2" xmlns="http://www.w3.org/2000/svg" viewBox="0 0 549.22 307.54">
  <defs>
    <style>
      .cls-1 {
        fill: #000;
        stroke-width: 0px;
      }
    </style>
  </defs>
  <g id="Layer_1-2" data-name="Layer 1">
    <g>
      <path class="cls-1" d="M356.24,5.99c44.73,0,84.34,7.53,114.54,21.79,30.89,14.57,50.44,35.59,56.56,60.77,17.83,73.38-82.16,162.67-222.89,199.04-39.7,10.26-78.86,15.46-116.41,15.46-44.73,0-84.34-7.53-114.54-21.79-30.89-14.57-50.44-35.59-56.56-60.77C-.88,147.12,99.11,57.83,239.83,21.46c39.7-10.26,78.86-15.46,116.41-15.46M356.24,4.99c-36.31,0-75.98,4.98-116.66,15.5C98.1,57.06-2.01,146.71,15.97,220.74c12.81,52.74,82.11,83.32,172.08,83.32,36.31,0,75.98-4.98,116.66-15.5,141.48-36.57,241.59-126.22,223.61-200.25-12.81-52.74-82.12-83.32-172.08-83.32h0Z"/>
      <path class="cls-1" d="M379.01,1c43.74,0,82.28,6.89,111.45,19.92,29.89,13.36,49.05,32.87,55.4,56.43,19.67,72.95-86.01,166.58-235.59,208.72-47.55,13.39-95.98,20.47-140.06,20.47s-82.28-6.89-111.45-19.92c-29.89-13.36-49.05-32.87-55.4-56.43C-16.31,157.24,89.37,63.61,238.94,21.47,286.5,8.08,334.93,1,379.01,1M379.01,0c-42.95,0-90.97,6.61-140.33,20.51C88.33,62.86-17.45,156.85,2.39,230.45c13.33,49.43,79.96,77.09,167.82,77.09,42.95,0,90.97-6.61,140.33-20.51,150.34-42.35,256.13-136.34,236.28-209.94C533.5,27.66,466.86,0,379.01,0h0Z"/>
    </g>
  </g>
</svg>