<svg height="24" viewBox="0 0 24 24" width="24" xmlns="http://www.w3.org/2000/svg"><path d="m14 2h-8a2 2 0 0 0 -2 2v16a2 2 0 0 0 2 2h12a2 2 0 0 0 2-2v-12zm-1 2 5 5h-5zm-4.469 14h-.76v-1.411h-1.256v1.411h-.767v-3.373h.767v1.296h1.257v-1.296h.76v3.373zm3-2.732h-.921v2.732h-.766v-2.732h-.905v-.641h2.592zm3.287 2.732-.05-1.291c-.017-.405-.03-.896-.03-1.387h-.016c-.104.431-.245.911-.375 1.307l-.41 1.316h-.597l-.359-1.307a15.154 15.154 0 0 1 -.306-1.316h-.011c-.021.456-.034.976-.059 1.396l-.06 1.282h-.705l.216-3.373h1.015l.331 1.126c.104.391.21.811.284 1.206h.017c.095-.391.209-.836.32-1.211l.359-1.121h.996l.185 3.373zm3.434 0h-2.108v-3.373h.767v2.732h1.342v.641z"/></svg>